PathFileType	4	(X/Y/Z)	RBDS08\RBDS08runT35.trc
DataRate	CameraRate	NumFrames	NumMarkers	Units	OrigDataRate	OrigDataStartFrame	OrigNumFrames
150.000000	150.000000	4	33	mm	150.000000	2812	4500
Frame#	Time	L.ASIS			L.Heel.Bottom			L.Heel.Lateral			L.Heel.Top			L.Iliac.Crest			L.MT1			L.MT5			L.PSIS			L.Shank.Bottom.Lateral			L.Shank.Bottom.Medial			L.Shank.Top.Lateral			L.Shank.Top.Medial			L.Thigh.Bottom.Lateral			L.Thigh.Bottom.Medial			L.Thigh.Top.Lateral			L.Thigh.Top.Medial			R.ASIS			R.ASY			R.Heel.Bottom			R.Heel.Lateral			R.Heel.Top			R.Iliac.Crest			R.MT1			R.MT5			R.PSIS			R.Shank.Bottom.Lateral			R.Shank.Bottom.Medial			R.Shank.Top.Lateral			R.Shank.Top.Medial			R.Thigh.Bottom.Lateral			R.Thigh.Bottom.Medial			R.Thigh.Top.Lateral			R.Thigh.Top.Medial			
		X1	Y1	Z1	X2	Y2	Z2	X3	Y3	Z3	X4	Y4	Z4	X5	Y5	Z5	X6	Y6	Z6	X7	Y7	Z7	X8	Y8	Z8	X9	Y9	Z9	X10	Y10	Z10	X11	Y11	Z11	X12	Y12	Z12	X13	Y13	Z13	X14	Y14	Z14	X15	Y15	Z15	X16	Y16	Z16	X17	Y17	Z17	X18	Y18	Z18	X19	Y19	Z19	X20	Y20	Z20	X21	Y21	Z21	X22	Y22	Z22	X23	Y23	Z23	X24	Y24	Z24	X25	Y25	Z25	X26	Y26	Z26	X27	Y27	Z27	X28	Y28	Z28	X29	Y29	Z29	X30	Y30	Z30	X31	Y31	Z31	X32	Y32	Z32	X33	Y33	Z33	

2813	18.74666666666667	2028.806852532677	933.1042120545313	904.2120403580938	1563.089321333215	560.9903089887679	980.7809458424523	1573.481571656958	532.826775304938	932.862267596368	1608.616842221939	537.1588423959149	983.0023212268107	1983.820074736863	1004.712596692388	864.0224502697422	1534.162319817825	332.0744604063296	987.5144695107274	1526.482456613823	386.9656859475832	889.6867292606805	1854.680917439154	976.7182446999897	945.8030310127621	1677.804916353086	478.1773305091428	917.4638678018351	1682.091553254143	512.3134251377871	956.8434518586472	1757.918711244963	480.7474970391013	904.4308987420586	1765.679685275295	512.719405716033	946.5342773412533	1998.991186921909	551.2100124726369	857.3922438029657	1942.716549110644	537.4179679538398	901.498205181039	1964.895007920323	656.0901469660714	847.6532379314499	1912.693790953206	643.2584286674903	891.9301269994388	2005.368743526696	967.837256575718	1132.292036237789	-13737587873.96963	3368325432.066824	-7173129747.046158	1874.81727791941	33.3095634866521	1031.814761290662	1905.34419747057	50.09437129304825	1070.415197051761	1891.514497954689	80.34014802673062	1024.261943738239	1942.367700529693	1021.825396185567	1154.586273363558	2099.658236184609	45.22363950773371	979.6776127880952	2072.499471491979	42.32550518535949	1086.302438881323	1841.916619524806	992.6476350055519	1042.580736652613	1973.910634969546	163.054084248316	1082.10249226649	1942.127142253118	180.6987656773926	1039.898087684325	1987.155394362187	241.1544796949068	1100.760118235856	1959.966704950826	256.5269212267335	1056.632317479957	2053.273175528758	577.3400497172319	1156.955615661932	1999.762123042035	556.35588384553	1111.383031814817	1997.110580628737	670.5476116506788	1178.595392955927	1946.634139605129	649.9417797408485	1136.863263223241	
2814	18.75333333333333	2026.829603983707	929.8719701105199	904.8305851883723	1578.173504202825	560.0654864733311	978.7461376996215	1590.099376455981	531.9715276430996	931.0436976167637	1624.059858818355	537.0291924963299	981.7987597594038	1980.5344391211	1001.091925752408	863.8908444495022	1553.473997240031	330.6932886765891	985.7345887317595	1546.768078673644	385.1877780846526	887.5059916439893	1852.452805878195	974.3878694948788	945.4160812352646	1695.370073701151	478.1869803042119	916.5183831654588	1699.49550796423	512.4514679388598	955.7544144834052	1775.520147905486	480.9230120312994	903.597308260635	1783.119159796506	513.0289938560592	945.6361393168112	2011.152350902654	551.926187889187	856.2891115948812	1955.076740673389	535.0917226436032	899.5748329679992	1972.533038387867	655.213334506552	847.2114176265685	1920.247482365644	639.4852522190276	890.3384103264801	2001.734449992553	965.4774257634584	1133.936052870984	-13754063033.58263	3372365999.223477	-7181731456.106249	1851.488011972937	33.53728933312825	1031.916268200883	1882.044951403139	50.37079743241811	1070.491002909079	1868.091449164292	80.56617999825227	1024.457382176301	1937.083655107687	1017.772567789404	1154.490027783088	2075.899594046	45.7550912465607	979.561165613082	2048.946292685402	43.00454299014898	1086.093180204924	1839.200252379538	990.4992363766314	1041.255006249603	1953.816108730118	163.0720520477412	1082.185920783014	1922.352930366418	181.8165921632969	1040.253624164642	1969.713042715381	240.7216019079077	1101.041731698618	1942.850859451956	257.0372637039727	1056.991850425529	2044.173620118291	573.4612381808744	1157.28085173827	1990.941262691194	553.7098776012888	1110.560287442186	1989.129986596082	667.5067057484473	1178.401636660743	1939.062051575355	648.0161883273188	1135.706669677573	
2815	18.76	2024.92605884975	927.7967482137227	905.1865416311547	1592.468329255264	557.8978032140409	976.3654220325678	1606.072144379829	529.8596126272753	928.9194790084362	1638.817893591569	535.922582753792	980.2929576657058	1976.733761359617	998.642016238494	863.7669786572494	1573.354622723044	328.0418833837821	984.1621333360612	1567.294294005784	381.8675408121688	885.4371634914905	1850.378402244294	972.9559015733746	945.1319045772938	1712.657228217454	477.6309625556245	915.5116227981342	1716.359324608317	512.0752445460944	954.5407179964272	1792.800620720744	481.0640948330505	902.7202821970224	1800.018903130335	513.3968570455231	944.6466521828335	2023.386625932397	554.1246430209848	855.1841324909432	1967.641811133629	534.2278840261636	897.6229428886669	1980.222975502285	655.5776715640686	846.6947808868642	1927.94010884989	636.9163941690305	888.6024114425771	1998.310449298192	963.6663686199732	1135.361591705952	-13770551360.08979	3376409796.404527	-7190340038.949269	1828.231051630684	33.63536898319784	1032.045564175034	1858.839168400044	50.49887471272969	1070.601054489448	1844.678459427593	80.68487932658067	1024.741304968406	1931.841287106742	1014.648172873313	1154.422399751842	2052.17249236967	46.28901119128749	979.503275481237	2025.442340229484	43.56700942746674	1085.89993522181	1836.800077013719	989.1510666834076	1040.183387891451	1933.309868783739	162.9046095315934	1082.331328570097	1902.268620202565	182.6109175231117	1040.589427715179	1951.553802384502	240.0503053284792	1101.373382834812	1925.092329951517	257.201007547577	1057.350355737514	2034.125598517711	569.6962499826233	1157.685981424572	1980.992500862292	551.2493254403446	1110.052421273158	1980.649065184901	664.8171230645482	1178.200061231821	1930.821584525531	646.5315533887067	1134.736243260404	
2816	18.76666666666667	2023.174833069128	926.8956069197949	905.3144491692898	1605.928905060505	554.4298408712808	973.7544919549608	1621.313828682127	526.4955969528364	926.5824698562752	1652.827693643769	533.7965285831879	978.5522641730553	1972.677941480361	997.3490679387838	863.6665779162931	1593.725302837918	324.171703038207	982.7809429194215	1587.937098315987	377.1205494957571	883.5059026174139	1848.519420841851	972.3899074422628	944.9422992352612	1729.542888758702	476.494904783387	914.4599420149963	1732.561725501223	511.173971130041	953.2147479857121	1809.624295909088	481.1492947945045	901.8070808648247	1816.241787617432	513.7980037700853	943.5661804452324	2035.553571274437	557.7486906912033	854.1090596910808	1980.280782175808	534.8233201473945	895.7046454650427	1987.886990962017	657.1491583662565	846.1204078374383	1935.728315288798	635.5688064600494	886.7950173833054	1995.191227641123	962.3661239498101	1136.540544320128	-13787052858.75048	3380456824.900495	-7198955498.320609	1804.980974217103	33.65896046427427	1032.174869203711	1835.658823887949	50.52465682354921	1070.726681773332	1821.251196619339	80.74788604955673	1025.069551196604	1926.918594680916	1012.518899290408	1154.410671156596	2028.495333703536	46.70815086212068	979.5319151283521	2001.961238813922	43.92905851227987	1085.759328234539	1834.750246021558	988.5940077080731	1039.378536482192	1912.412976084061	162.5976072320342	1082.514677948202	1881.888717496266	183.1327698913333	1040.873768172353	1932.708067801629	239.214212507636	1101.721043840324	1906.723842445943	257.0943183152901	1057.672401590569	2023.220443380836	566.1611737281352	1158.163905587171	1970.001534192752	549.0590915739028	1109.894348578937	1971.747324643823	662.551900647656	1178.015045846626	1921.974400886981	645.5337665971836	1134.002758932503	
